<?xml version="1.0" encoding="UTF-8"?>
<svg id="Layer_2" data-name="Layer 2" xmlns="http://www.w3.org/2000/svg" viewBox="0 0 740.07 128.99">
  <defs>
    <style>
      .cls-1 {
        fill: #fd6262;
      }

      .cls-2 {
        fill: #889ce7;
      }

      .cls-3 {
        fill: #141416;
      }
    </style>
  </defs>
  <g id="Layer_1-2" data-name="Layer 1">
    <g>
      <g>
        <path class="cls-3" d="M186.9,48.2c9.27,0,17.58,4.16,23.16,10.81,5.58-6.65,13.9-10.81,23.16-10.81,19.72,0,32.07,15.21,32.07,33.97v32.07h-17.82v-32.07c0-9.86-4.4-17.82-14.25-17.82s-14.25,7.96-14.25,17.82v32.07h-17.82v-32.07c0-9.86-4.39-17.82-14.25-17.82s-14.25,7.96-14.25,17.82v32.07h-17.82v-32.07c0-18.77,12.35-33.97,32.07-33.97Z"/>
        <path class="cls-3" d="M343.61,82.17v32.07h-16.63v-7.96c-4.04,5.94-10.93,9.86-18.65,9.86-19.48,0-35.28-15.21-35.28-33.98s15.8-33.97,35.28-33.97,35.28,15.21,35.28,33.97ZM326.5,82.17c0-9.86-7.96-17.82-17.82-17.82s-17.82,7.96-17.82,17.82,7.96,17.82,17.82,17.82,17.82-7.96,17.82-17.82Z"/>
        <path class="cls-3" d="M404.56,94.29c0,13.78-12.35,21.86-26.13,21.86s-26.13-8.08-26.13-21.86h17.82c0,5.46,4.4,6.89,8.32,6.89s8.32-2.02,8.32-6.18c0-2.97-3.92-5.7-9.27-6.42-12.47-1.54-24.47-9.14-24.47-19.24,0-13.07,11.64-21.14,25.42-21.14s25.42,8.08,25.42,21.86h-17.82c0-5.46-3.68-6.89-7.6-6.89s-7.6,1.43-7.6,5.7c0,3.8,7.84,6.77,14.73,7.6,9.39,1.07,19.01,7.01,19.01,17.82Z"/>
        <path class="cls-3" d="M431.29,28.71v21.38h17.82v15.21h-17.82v16.87c0,9.86,7.96,17.82,17.82,17.82v16.16h-2.38c-19.72,0-33.26-15.21-33.26-33.98V28.71h17.82Z"/>
        <path class="cls-3" d="M491.88,48.2h2.38v16.16c-9.86,0-17.82,7.96-17.82,17.82v32.07h-17.82v-32.07c0-18.77,13.54-33.97,33.26-33.97Z"/>
        <path class="cls-3" d="M533.82,116.15c-19.6,0-35.4-15.21-35.4-33.98s15.8-33.97,35.4-33.97,35.4,15.21,35.4,33.97-15.8,33.98-35.4,33.98ZM533.82,64.35c-9.74,0-17.58,7.96-17.58,17.82s7.84,17.82,17.58,17.82,17.58-7.96,17.58-17.82-7.84-17.82-17.58-17.82Z"/>
        <path class="cls-1" d="M577.55,114.24V28.71h19.01v33.02h36.83V28.71h19.01v85.53h-19.01v-35.4h-36.83v35.4h-19.01Z"/>
        <path class="cls-1" d="M664.28,114.24V28.71h42.53c15.8,0,28.75,12.71,28.75,28.51,0,12.23-7.84,22.69-18.77,26.73l23.28,30.29h-22.33l-21.38-28.51h-13.07v28.51h-19.01ZM683.28,68.63h22.57c5.23,0,10.69-5.11,10.69-11.4s-5.47-11.41-10.69-11.41h-22.57v22.81Z"/>
      </g>
      <g>
        <path class="cls-2" d="M42.56,72.24c3.76,0,7.52,1.53,10.24,4.06-1.45-2.23-2.2-4.76-2.2-7.6,0-1.04.1-2.06.28-3.05.38-2.74,2.29-5.84,5.74-9.29,2.52-2.52,5.23-4.62,8.07-6.38-6.54-4.04-13.91-6.11-22.14-6.11-11.73,0-21.76,4.15-30.08,12.45C4.16,64.61,0,74.65,0,86.43s4.16,21.81,12.49,30.11c8.32,8.3,18.35,12.45,30.08,12.45,8.2,0,15.55-2.07,22.08-6.11-2.82-1.74-5.5-3.81-8.01-6.31-3.45-3.5-5.37-6.62-5.74-9.36-.19-.99-.28-2.01-.28-3.05,0-2.87.76-5.42,2.23-7.67-.03.04-.07.07-.09.1-2.74,2.74-6.26,4.01-10.18,4.01s-7.27-1.38-10.04-4.15c-2.76-2.77-4.15-6.11-4.15-10.04s1.38-7.27,4.15-10.04c2.77-2.77,6.11-4.15,10.04-4.15Z"/>
        <path class="cls-1" d="M116.86,56.31c-8.32-8.3-18.35-12.45-30.08-12.45-8.2,0-15.55,2.07-22.08,6.11,2.82,1.74,5.5,3.81,8.01,6.31,3.45,3.5,5.37,6.62,5.74,9.36.19.99.28,2.01.28,3.05,0,2.9-.76,5.47-2.27,7.73,2.73-2.67,6.44-4.19,10.31-4.19s7.27,1.38,10.04,4.15c2.76,2.77,4.15,6.11,4.15,10.04s-1.38,7.27-4.15,10.04c-2.77,2.77-6.11,4.15-10.04,4.15s-7.45-1.28-10.19-4.03c0,0,0,0,0,0,0,0-.01.01-.02.02,1.43,2.22,2.17,4.74,2.17,7.56,0,1.04-.1,2.06-.28,3.05-.38,2.74-2.29,5.84-5.74,9.29-2.52,2.52-5.23,4.62-8.07,6.38,6.54,4.04,13.91,6.11,22.14,6.11,11.73,0,21.76-4.15,30.08-12.45,8.33-8.3,12.49-18.34,12.49-30.11s-4.16-21.81-12.49-30.11Z"/>
        <path class="cls-3" d="M78.46,107.21c.19-.99.28-2.01.28-3.05,0-3.92-1.38-7.27-4.15-10.04-2.74-2.74-6.05-4.11-9.92-4.14-3.87.03-7.18,1.4-9.92,4.14-2.76,2.77-4.15,6.11-4.15,10.04,0,1.04.1,2.06.28,3.05.38,2.74,2.29,5.86,5.74,9.36,2.51,2.49,5.19,4.56,8.01,6.31,2.84-1.76,5.54-3.85,8.07-6.38,3.45-3.45,5.37-6.55,5.74-9.29Z"/>
        <path class="cls-3" d="M50.89,65.64c-.19.99-.28,2.01-.28,3.05,0,3.92,1.38,7.27,4.15,10.04,2.74,2.74,6.05,4.11,9.92,4.14,3.87-.03,7.18-1.4,9.92-4.14,2.76-2.77,4.15-6.11,4.15-10.04,0-1.04-.1-2.06-.28-3.05-.38-2.74-2.29-5.86-5.74-9.36-2.51-2.49-5.19-4.56-8.01-6.31-2.84,1.76-5.54,3.85-8.07,6.38-3.45,3.45-5.37,6.55-5.74,9.29Z"/>
      </g>
      <circle class="cls-2" cx="42.45" cy="18.28" r="18.28"/>
      <circle class="cls-1" cx="86.96" cy="18.28" r="18.28"/>
    </g>
  </g>
</svg>