<?xml version="1.0" encoding="UTF-8"?>
<svg id="Layer_2" data-name="Layer 2" xmlns="http://www.w3.org/2000/svg" viewBox="0 0 606.59 328.22">
  <defs>
    <style>
      .cls-1 {
        fill: #fd6262;
      }

      .cls-2 {
        fill: #fff;
      }

      .cls-3 {
        fill: #889ce7;
      }
    </style>
  </defs>
  <g id="Layer_1-2" data-name="Layer 1">
    <g>
      <g>
        <path class="cls-2" d="M33.24,257.79c9.6,0,18.22,4.31,24.01,11.2,5.79-6.89,14.41-11.2,24.01-11.2,20.44,0,33.24,15.76,33.24,35.21v33.24h-18.47v-33.24c0-10.22-4.56-18.47-14.77-18.47s-14.77,8.25-14.77,18.47v33.24h-18.47v-33.24c0-10.22-4.55-18.47-14.77-18.47s-14.77,8.25-14.77,18.47v33.24H0v-33.24c0-19.45,12.8-35.21,33.24-35.21Z"/>
        <path class="cls-2" d="M195.66,293v33.24h-17.24v-8.25c-4.19,6.16-11.33,10.22-19.33,10.22-20.19,0-36.57-15.76-36.57-35.22s16.38-35.21,36.57-35.21,36.57,15.76,36.57,35.21ZM177.93,293c0-10.22-8.25-18.47-18.47-18.47s-18.47,8.25-18.47,18.47,8.25,18.47,18.47,18.47,18.47-8.25,18.47-18.47Z"/>
        <path class="cls-2" d="M258.84,305.56c0,14.28-12.8,22.65-27.09,22.65s-27.09-8.37-27.09-22.65h18.47c0,5.66,4.56,7.14,8.62,7.14s8.62-2.09,8.62-6.4c0-3.08-4.06-5.91-9.6-6.65-12.93-1.6-25.36-9.48-25.36-19.94,0-13.54,12.07-21.92,26.35-21.92s26.35,8.37,26.35,22.65h-18.47c0-5.66-3.82-7.14-7.88-7.14s-7.88,1.48-7.88,5.91c0,3.94,8.13,7.02,15.27,7.88,9.73,1.11,19.7,7.26,19.7,18.47Z"/>
        <path class="cls-2" d="M286.55,237.6v22.16h18.47v15.76h-18.47v17.48c0,10.22,8.25,18.47,18.47,18.47v16.75h-2.46c-20.44,0-34.47-15.76-34.47-35.22v-55.41h18.47Z"/>
        <path class="cls-2" d="M349.35,257.79h2.46v16.75c-10.22,0-18.47,8.25-18.47,18.47v33.24h-18.47v-33.24c0-19.45,14.04-35.21,34.47-35.21Z"/>
        <path class="cls-2" d="M392.82,328.22c-20.32,0-36.69-15.76-36.69-35.22s16.38-35.21,36.69-35.21,36.69,15.76,36.69,35.21-16.38,35.22-36.69,35.22ZM392.82,274.54c-10.1,0-18.22,8.25-18.22,18.47s8.13,18.47,18.22,18.47,18.22-8.25,18.22-18.47-8.12-18.47-18.22-18.47Z"/>
        <path class="cls-1" d="M438.14,326.25v-88.65h19.7v34.23h38.17v-34.23h19.7v88.65h-19.7v-36.69h-38.17v36.69h-19.7Z"/>
        <path class="cls-1" d="M528.04,326.25v-88.65h44.08c16.38,0,29.8,13.18,29.8,29.55,0,12.68-8.13,23.52-19.45,27.7l24.13,31.4h-23.15l-22.16-29.55h-13.54v29.55h-19.7ZM547.74,278.97h23.39c5.42,0,11.08-5.29,11.08-11.82s-5.66-11.82-11.08-11.82h-23.39v23.64Z"/>
      </g>
      <g>
        <g>
          <path class="cls-3" d="M268.7,113.04c5.88,0,11.76,2.39,16.02,6.35-2.27-3.5-3.44-7.45-3.44-11.9,0-1.63.15-3.22.44-4.77.59-4.29,3.59-9.14,8.99-14.54,3.95-3.95,8.18-7.23,12.63-9.98-10.24-6.32-21.77-9.56-34.64-9.56-18.35,0-34.04,6.49-47.07,19.48-13.03,12.99-19.54,28.69-19.54,47.12s6.51,34.13,19.54,47.12c13.02,12.99,28.71,19.48,47.07,19.48,12.84,0,24.34-3.24,34.55-9.56-4.41-2.73-8.61-5.97-12.54-9.87-5.4-5.48-8.4-10.36-8.99-14.65-.29-1.55-.44-3.15-.44-4.77,0-4.49,1.18-8.48,3.49-11.99-.04.06-.1.1-.14.16-4.29,4.29-9.79,6.28-15.93,6.28s-11.38-2.16-15.71-6.49c-4.33-4.33-6.49-9.56-6.49-15.71s2.17-11.38,6.49-15.71c4.33-4.33,9.57-6.49,15.71-6.49Z"/>
          <path class="cls-1" d="M384.96,88.12c-13.02-12.99-28.71-19.48-47.07-19.48-12.84,0-24.34,3.24-34.55,9.56,4.41,2.73,8.61,5.97,12.54,9.87,5.4,5.48,8.4,10.36,8.99,14.65.29,1.55.44,3.15.44,4.77,0,4.53-1.2,8.56-3.55,12.1,4.28-4.18,10.08-6.55,16.13-6.55s11.38,2.16,15.71,6.49c4.33,4.33,6.49,9.56,6.49,15.71s-2.17,11.38-6.49,15.71c-4.33,4.33-9.57,6.49-15.71,6.49s-11.65-2.01-15.95-6.3c0,0,0,0,0,0-.01.01-.02.02-.03.03,2.24,3.48,3.4,7.41,3.4,11.83,0,1.63-.15,3.22-.44,4.77-.59,4.29-3.59,9.14-8.99,14.54-3.95,3.95-8.18,7.23-12.63,9.98,10.24,6.32,21.77,9.56,34.64,9.56,18.35,0,34.04-6.49,47.07-19.48,13.03-12.99,19.54-28.69,19.54-47.12s-6.51-34.13-19.54-47.12Z"/>
          <path class="cls-2" d="M324.87,167.76c.29-1.55.44-3.14.44-4.77,0-6.14-2.17-11.38-6.49-15.71-4.29-4.28-9.46-6.43-15.52-6.48-6.06.05-11.24,2.19-15.52,6.48-4.33,4.33-6.49,9.56-6.49,15.71,0,1.63.15,3.22.44,4.77.59,4.29,3.59,9.18,8.99,14.65,3.92,3.9,8.12,7.14,12.54,9.87,4.45-2.75,8.68-6.03,12.63-9.98,5.4-5.4,8.4-10.25,8.99-14.54Z"/>
          <path class="cls-2" d="M281.73,102.71c-.29,1.55-.44,3.14-.44,4.77,0,6.14,2.17,11.38,6.49,15.71,4.29,4.28,9.46,6.43,15.52,6.48,6.06-.05,11.24-2.19,15.52-6.48,4.33-4.33,6.49-9.56,6.49-15.71,0-1.63-.15-3.22-.44-4.77-.59-4.29-3.59-9.18-8.99-14.65-3.92-3.9-8.12-7.14-12.54-9.87-4.45,2.75-8.68,6.03-12.63,9.98-5.4,5.4-8.4,10.25-8.99,14.54Z"/>
        </g>
        <circle class="cls-3" cx="268.51" cy="28.61" r="28.61"/>
        <circle class="cls-1" cx="338.17" cy="28.61" r="28.61"/>
      </g>
    </g>
  </g>
</svg>
